<svg width="32" height="32" viewBox="0 0 32 32" fill="none" xmlns="http://www.w3.org/2000/svg">
  <!-- Ship hull -->
  <path d="M4 20C4 18.5 5.5 17 7 17H25C26.5 17 28 18.5 28 20V22C28 23.5 26.5 25 25 25H7C5.5 25 4 23.5 4 22V20Z" fill="#3B82F6"/>
  
  <!-- Ship deck -->
  <rect x="6" y="15" width="20" height="4" fill="#1E40AF"/>
  
  <!-- Mast -->
  <line x1="16" y1="15" x2="16" y2="8" stroke="#8B5CF6" stroke-width="2"/>
  
  <!-- Sail -->
  <path d="M16 8L24 12L16 12L8 12Z" fill="#A855F7"/>
  
  <!-- Waves -->
  <path d="M2 24C4 22 8 22 12 24C16 22 20 22 24 24C26 22 28 22 30 24" stroke="#06B6D4" stroke-width="2" fill="none"/>
  
  <!-- Navigation lights -->
  <circle cx="8" cy="19" r="1" fill="#F59E0B"/>
  <circle cx="24" cy="19" r="1" fill="#10B981"/>
</svg>